<?xml version="1.0" encoding="UTF-8" standalone="no"?>
<!-- Generator: Gravit.io -->

<svg
   xmlns:dc="http://purl.org/dc/elements/1.1/"
   xmlns:cc="http://creativecommons.org/ns#"
   xmlns:rdf="http://www.w3.org/1999/02/22-rdf-syntax-ns#"
   xmlns:svg="http://www.w3.org/2000/svg"
   xmlns="http://www.w3.org/2000/svg"
   xmlns:sodipodi="http://sodipodi.sourceforge.net/DTD/sodipodi-0.dtd"
   xmlns:inkscape="http://www.inkscape.org/namespaces/inkscape"
   style="isolation:isolate"
   viewBox="0 0 450 450"
   width="450pt"
   height="450pt"
   version="1.1"
   id="svg111"
   sodipodi:docname="2869(1).svg"
   inkscape:version="0.92.4 5da689c313, 2019-01-14">
  <metadata
     id="metadata115">
    <rdf:RDF>
      <cc:Work
         rdf:about="">
        <dc:format>image/svg+xml</dc:format>
        <dc:type
           rdf:resource="http://purl.org/dc/dcmitype/StillImage" />
        <dc:title></dc:title>
      </cc:Work>
    </rdf:RDF>
  </metadata>
  <sodipodi:namedview
     pagecolor="#ffffff"
     bordercolor="#666666"
     borderopacity="1"
     objecttolerance="10"
     gridtolerance="10"
     guidetolerance="10"
     inkscape:pageopacity="0"
     inkscape:pageshadow="2"
     inkscape:window-width="1920"
     inkscape:window-height="1016"
     id="namedview113"
     showgrid="false"
     inkscape:zoom="3.1466667"
     inkscape:cx="349.30145"
     inkscape:cy="300.37622"
     inkscape:window-x="0"
     inkscape:window-y="27"
     inkscape:window-maximized="1"
     inkscape:current-layer="g107" />
  <defs
     id="defs5">
    <clipPath
       id="_clipPath_WKPt7sxsaibvsJ4S6mHpMVkJ9NH1rdjU">
      <rect
         width="450"
         height="450"
         id="rect2" />
    </clipPath>
    <style
       id="style2">.cls-1{fill:none;stroke:#bdbbba;stroke-miterlimit:10;}.cls-2{fill:#707173;}.cls-2,.cls-3{fill-rule:evenodd;}.cls-3{fill:#f39732;}</style>
  </defs>
  <g
     clip-path="url(#_clipPath_WKPt7sxsaibvsJ4S6mHpMVkJ9NH1rdjU)"
     id="g109">
    <clipPath
       id="_clipPath_aTUjTqXx8KbOoyQ2dHkJ5f0ahCkB7e3h">
      <path
         d=" M 0 0 L 0 450 L 450 450 L 450 0 L 0 0 Z "
         fill="rgb(255,255,255)"
         id="path7" />
    </clipPath>
    <g
       clip-path="url(#_clipPath_aTUjTqXx8KbOoyQ2dHkJ5f0ahCkB7e3h)"
       id="g107">
      <g
         id="g63"
         inkscape:export-filename="/home/uuganbaatar/Documents/mobile dev/umoney_flutter/assets/images/hand_right.png"
         inkscape:export-xdpi="167.55916"
         inkscape:export-ydpi="167.55916">
        <path
           d=" M 304.613 171.636 C 304.613 171.636 326.448 182.992 333.485 190.68 C 340.521 198.368 346.297 215.998 346.297 215.998 L 330.242 228.858 C 330.242 228.858 315.582 218.052 314.438 215.161 C 313.294 212.27 298.999 180.818 299.818 179.869 C 300.637 178.92 304.613 171.636 304.613 171.636 Z "
           fill="rgb(248,189,131)"
           id="path10"
           style="fill:#fecfa1;fill-opacity:1" />
        <path
           d=" M 315 179.869 C 315.807 179.944 322.322 188.162 322.52 192.132 C 323.537 196.187 321.912 198.195 320.181 198.335 C 318.45 198.476 308.401 191.084 308.401 191.084 C 295.157 173.821 297.257 170.453 315 179.869 Z "
           fill="rgb(247,172,111)"
           id="path12"
           style="fill:#ffc495;fill-opacity:1" />
        <path
           d=" M 311.354 192.774 L 307.161 207.74 C 306.517 210.04 304.108 211.395 301.808 210.75 C 299.508 210.106 298.153 207.697 298.798 205.397 L 302.991 190.431 C 303.635 188.131 306.044 186.777 308.344 187.421 L 308.344 187.421 C 310.644 188.065 311.999 190.474 311.354 192.774 Z "
           fill="rgb(247,172,111)"
           id="path14"
           style="fill:#ffc495;fill-opacity:1" />
        <path
           d=" M 304.498 188.602 L 300.305 203.568 C 299.661 205.868 297.251 207.223 294.952 206.578 C 292.652 205.934 291.297 203.525 291.942 201.225 L 296.135 186.259 C 296.779 183.959 299.188 182.604 301.488 183.249 C 303.788 183.893 305.142 186.302 304.498 188.602 Z "
           fill="rgb(247,172,111)"
           id="path16"
           style="fill:#ffc495;fill-opacity:1" />
        <g
           id="g49">
          <path
             d=" M 256.109 173.03 L 304.753 164.335 C 305.681 164.168 306.57 164.788 306.736 165.717 L 311.539 192.583 C 311.705 193.513 311.085 194.4 310.157 194.567 L 261.512 203.262 C 260.585 203.428 259.696 202.81 259.53 201.88 L 254.727 175.014 C 254.561 174.084 255.18 173.196 256.109 173.03 Z "
             fill="rgb(0,111,138)"
             id="path18" />
          <path
             d=" M 256.109 173.03 L 304.753 164.335 C 305.332 164.231 305.897 164.433 306.278 164.825 C 305.983 164.698 305.649 164.652 305.308 164.714 L 256.665 173.409 C 255.735 173.575 255.117 174.464 255.283 175.393 L 260.086 202.261 C 260.149 202.61 260.314 202.914 260.543 203.15 C 260.031 202.931 259.635 202.469 259.53 201.88 L 254.727 175.014 C 254.561 174.084 255.18 173.196 256.109 173.03 Z "
             fill="rgb(58,144,165)"
             id="path20" />
          <linearGradient
             id="_lgradient_4"
             x1="0"
             y1="0"
             x2="1"
             y2="0"
             gradientTransform="matrix(33.377,12.519,14.834,-31.215,271.767,177.106)"
             gradientUnits="userSpaceOnUse">
            <stop
               offset="0%"
               stop-opacity="1"
               style="stop-color:rgb(122,147,153)"
               id="stop22" />
            <stop
               offset="49.20634920634921%"
               stop-opacity="1"
               style="stop-color:rgb(148,178,186)"
               id="stop24" />
            <stop
               offset="100%"
               stop-opacity="1"
               style="stop-color:rgb(157,189,197)"
               id="stop26" />
          </linearGradient>
          <path
             d=" M 261.5 203.264 C 261.498 203.264 261.498 203.265 261.496 203.265 C 261.498 203.265 261.498 203.264 261.5 203.264 Z  M 261.489 203.266 C 261.487 203.267 261.485 203.267 261.483 203.267 C 261.485 203.267 261.487 203.267 261.489 203.266 Z  M 261.476 203.268 C 261.474 203.269 261.472 203.269 261.47 203.269 C 261.472 203.269 261.474 203.269 261.476 203.268 Z  M 261.464 203.27 C 261.46 203.271 261.455 203.272 261.45 203.273 C 261.455 203.272 261.46 203.271 261.464 203.27 Z  M 261.447 203.272 C 261.444 203.273 261.441 203.274 261.438 203.274 C 261.441 203.274 261.444 203.273 261.447 203.272 Z  M 261.436 203.274 C 261.433 203.274 261.429 203.275 261.426 203.276 C 261.429 203.275 261.433 203.274 261.436 203.274 Z  M 261.425 203.276 C 260.92 203.339 260.433 203.174 260.077 202.856 C 260.433 203.175 260.919 203.339 261.425 203.276 Z "
             fill-rule="evenodd"
             fill="url(#_lgradient_4)"
             id="path29" />
          <linearGradient
             id="_lgradient_5"
             x1="0"
             y1="0"
             x2="1"
             y2="0"
             gradientTransform="matrix(647.932,-118.786,444.659,-121.609,-627.343,369.02)"
             gradientUnits="userSpaceOnUse">
            <stop
               offset="0%"
               stop-opacity="1"
               style="stop-color:rgb(179,179,179)"
               id="stop31" />
            <stop
               offset="52.38095238095239%"
               stop-opacity="1"
               style="stop-color:rgb(219,219,219)"
               id="stop33" />
            <stop
               offset="100%"
               stop-opacity="1"
               style="stop-color:rgb(230,230,230)"
               id="stop35" />
          </linearGradient>
          <path
             d=" M 306.734 165.705 C 306.733 165.702 306.733 165.699 306.732 165.696 C 306.733 165.699 306.733 165.702 306.734 165.705 Z  M 306.731 165.693 C 306.731 165.691 306.731 165.689 306.73 165.687 C 306.731 165.689 306.731 165.691 306.731 165.693 Z  M 306.729 165.683 C 306.729 165.68 306.728 165.677 306.728 165.675 C 306.728 165.677 306.729 165.68 306.729 165.683 Z  M 306.727 165.67 C 306.727 165.669 306.726 165.668 306.726 165.667 C 306.726 165.668 306.727 165.669 306.727 165.67 Z "
             fill-rule="evenodd"
             fill="url(#_lgradient_5)"
             id="path38" />
          <linearGradient
             id="_lgradient_6"
             x1="0"
             y1="0"
             x2="1"
             y2="0"
             gradientTransform="matrix(29.774,12.608,12.608,-29.774,270.071,178.269)"
             gradientUnits="userSpaceOnUse">
            <stop
               offset="0%"
               stop-opacity="1"
               style="stop-color:rgb(0,78,97)"
               id="stop40" />
            <stop
               offset="52.38095238095239%"
               stop-opacity="1"
               style="stop-color:rgb(0,95,119)"
               id="stop42" />
            <stop
               offset="100%"
               stop-opacity="1"
               style="stop-color:rgb(0,100,124)"
               id="stop44" />
          </linearGradient>
          <path
             d=" M 310.213 194.556 C 311.11 194.365 311.701 193.494 311.539 192.583 L 311.2 190.69 L 308.564 175.943 L 308.045 173.04 L 306.736 165.717 C 306.735 165.714 306.735 165.711 306.734 165.708 C 306.734 165.707 306.734 165.706 306.734 165.705 C 306.733 165.702 306.733 165.699 306.732 165.696 C 306.732 165.695 306.732 165.694 306.731 165.693 C 306.731 165.691 306.731 165.689 306.73 165.687 C 306.73 165.685 306.73 165.684 306.729 165.683 C 306.729 165.68 306.728 165.677 306.728 165.675 C 306.728 165.673 306.727 165.671 306.727 165.67 C 306.727 165.669 306.726 165.668 306.726 165.667 C 306.657 165.338 306.497 165.05 306.276 164.825 C 306.169 164.779 306.056 164.743 305.939 164.719 C 306.055 164.902 306.139 165.11 306.18 165.337 L 310.983 192.204 C 311.145 193.114 310.555 193.986 309.657 194.177 C 309.639 194.181 309.62 194.185 309.601 194.188 L 260.957 202.884 C 260.742 202.922 260.529 202.918 260.326 202.878 C 260.389 202.977 260.462 203.068 260.543 203.15 C 260.336 203.062 260.147 202.933 259.989 202.772 C 259.989 202.772 259.988 202.772 259.988 202.772 C 260.016 202.802 260.045 202.829 260.077 202.856 C 260.433 203.174 260.92 203.339 261.425 203.276 C 261.425 203.276 261.426 203.276 261.426 203.276 C 261.429 203.275 261.433 203.274 261.436 203.274 C 261.437 203.274 261.438 203.274 261.438 203.274 C 261.441 203.274 261.444 203.273 261.447 203.272 C 261.448 203.272 261.449 203.272 261.45 203.273 C 261.455 203.272 261.46 203.271 261.464 203.27 C 261.466 203.27 261.468 203.27 261.47 203.269 C 261.472 203.269 261.474 203.269 261.476 203.268 C 261.479 203.268 261.481 203.267 261.483 203.267 C 261.485 203.267 261.487 203.267 261.489 203.266 C 261.491 203.266 261.494 203.265 261.496 203.265 C 261.498 203.265 261.498 203.264 261.5 203.264 C 261.504 203.263 261.508 203.263 261.512 203.262 L 261.512 203.262 L 262.578 203.072 L 279.367 200.071 L 281.764 199.642 L 288.683 198.405 L 297.487 196.831 L 305.319 195.431 L 310.157 194.567 C 310.176 194.563 310.194 194.56 310.213 194.556 Z "
             fill="url(#_lgradient_6)"
             id="path47" />
        </g>
        <path
           d=" M 326.545 225.523 C 326.545 225.523 316.12 221.282 312.262 216.465 C 308.403 211.649 306.902 201.365 304.254 197.694 C 302.725 195.574 298.976 192.039 297.136 188.436 C 295.343 184.928 295.599 182.295 297.184 181.026 C 298.665 179.84 301.382 180.554 304.042 183.066 C 307.148 185.998 308.903 189.83 310.461 191.551 C 314.14 195.611 321.924 198.183 327.139 203.963 C 332.354 209.742 335.321 216.737 333.894 217.88 C 332.467 219.023 332.685 225.876 326.545 225.523 Z "
           fill="rgb(248,189,131)"
           id="path51"
           style="fill:#fecfa1;fill-opacity:1" />
        <path
           d=" M 369 276 L 369 237.234 L 343.463 210.215 L 325.263 224.793 L 369 276 Z "
           fill="rgb(248,189,131)"
           id="path53"
           style="fill:#fecfa1;fill-opacity:1" />
        <path
           d=" M 312.262 216.465 C 312.099 216.262 311.946 216.037 311.792 215.815 L 311.864 215.712 C 311.864 215.712 319.544 222.318 326.081 222.132 C 332.619 221.946 337.095 217.573 338.315 218.329 C 339.534 219.085 331.397 226.273 332.439 227.782 C 333.464 229.267 368.038 266.021 369 267.011 L 369 276 L 325.502 225.075 C 322.77 223.866 315.377 220.355 312.262 216.465 Z "
           fill="rgb(247,172,111)"
           id="path55"
           style="fill:#ffc495;fill-opacity:1" />
        <path
           d=" M 301.472 187.659 L 302.192 187.082 C 303.325 186.175 303.509 184.506 302.602 183.373 L 300.757 181.07 C 299.85 179.937 298.18 179.752 297.048 180.66 L 296.327 181.237 C 295.194 182.144 295.01 183.814 295.917 184.946 L 297.762 187.25 C 298.669 188.382 300.339 188.567 301.472 187.659 Z "
           fill="rgb(250,204,159)"
           id="path57"
           style="fill:#ffc78f;fill-opacity:1" />
        <path
           d=" M 307.155 189.781 C 307.155 189.781 305.862 189.943 304.644 191.023 C 303.425 192.103 303.154 193.325 303.154 193.325 C 303.154 193.325 303.604 192.436 304.911 191.278 C 306.218 190.12 307.155 189.781 307.155 189.781 Z "
           fill="rgb(245,154,80)"
           id="path59"
           style="fill:#ffc495;fill-opacity:1" />
        <path
           d=" M 307.721 190.42 C 307.721 190.42 306.429 190.583 305.21 191.663 C 303.992 192.742 303.721 193.964 303.721 193.964 C 303.721 193.964 304.17 193.075 305.477 191.917 C 306.784 190.759 307.721 190.42 307.721 190.42 Z "
           fill="rgb(245,154,80)"
           id="path61"
           style="fill:#ffc495;fill-opacity:1" />
      </g>
      <g
         id="g105">
        <path
           d=" M 170.312 239.188 C 168.58 245.073 176.665 253.022 185.566 252.578 C 192.69 253.77 214.233 239.572 213.825 236.904 C 213.417 234.235 202.343 212.224 196.691 213.417 C 191.039 214.609 170.22 232.034 170.312 239.188 Z "
           fill="rgb(248,189,131)"
           id="path65"
           style="fill:#ffc78f;fill-opacity:1" />
        <path
           d=" M 166.69 238.69 L 149.933 266.315 L 149.933 299.967 L 160.766 299.967 C 160.766 299.967 182.227 258.862 183.877 257.485 C 185.528 256.108 166.69 238.69 166.69 238.69 Z "
           fill="rgb(248,189,131)"
           id="path67"
           style="fill:#fecfa1;fill-opacity:1" />
        <path
           d=" M 160.766 299.967 C 160.766 299.967 182.227 258.862 183.877 257.485 L 183.879 257.482 C 191.742 256.57 208.086 245.91 210.008 242.457 C 208.118 240.392 210.571 235.246 208.871 233.599 C 192.867 218.094 181.023 224.4 181.768 245.868 C 181.768 245.868 180.971 248.987 177.669 249.368 C 174.366 249.75 171.2 247.992 170.95 248.746 C 170.7 249.5 177.866 255.5 178.2 256.667 C 178.525 257.805 155.866 297.973 154.746 299.967 L 160.766 299.967 Z "
           id="path69"
           style="fill:#ffc495;fill-opacity:1"
           fill="rgb(247,172,111)" />
        <path
           d=" M 215.709 217.429 L 211.515 220.524 L 218.05 223.504 L 211.345 229.26 L 217.642 230.519 L 211.487 236.19 C 211.487 236.19 215.491 238.744 214.935 238.967 C 214.38 239.189 208.205 244.478 208.205 244.478 L 208.871 216.397 L 215.709 217.429 Z "
           fill="rgb(247,172,111)"
           id="path71"
           style="fill:#ffc495;fill-opacity:1" />
        <g
           id="g83">
          <path
             d=" M 210.634 231.363 L 181.768 231.363 L 181.768 181.519 L 210.634 181.519 L 210.634 231.363 Z "
             fill="rgb(161,208,217)"
             id="path73" />
          <path
             d=" M 210.072 228.38 L 182.395 228.38 L 182.395 184.457 L 210.072 184.457 L 210.072 228.38 Z  M 210.105 178.259 L 182.36 178.259 C 181.033 178.259 179.955 179.391 179.955 180.79 L 179.955 231.62 C 179.955 233.018 181.033 234.152 182.36 234.152 L 210.105 234.152 C 211.433 234.152 212.511 233.018 212.511 231.62 L 212.511 180.79 C 212.511 179.391 211.433 178.259 210.105 178.259 Z "
             fill="rgb(0,28,34)"
             id="path75" />
          <path
             d=" M 199.993 180.524 L 192.475 180.524 C 191.924 180.524 191.48 180.969 191.48 181.519 C 191.48 182.068 191.924 182.514 192.475 182.514 L 199.993 182.514 C 200.542 182.514 200.986 182.068 200.986 181.519 C 200.986 180.969 200.542 180.524 199.993 180.524 Z "
             fill="rgb(0,111,138)"
             id="path77" />
          <path
             d=" M 198.221 232.847 L 194.245 232.847 C 193.721 232.847 193.292 232.419 193.292 231.894 L 193.292 230.641 C 193.292 230.117 193.721 229.688 194.245 229.688 L 198.221 229.688 C 198.746 229.688 199.175 230.117 199.175 230.641 L 199.175 231.894 C 199.175 232.419 198.746 232.847 198.221 232.847 Z "
             fill="rgb(0,111,138)"
             id="path79" />
          <path
             d=" M 199.329 180.82 L 193.033 180.82 C 192.572 180.82 192.199 181.131 192.199 181.519 C 192.199 181.905 192.572 182.217 193.033 182.217 L 199.329 182.217 C 199.79 182.217 200.164 181.905 200.164 181.519 C 200.164 181.131 199.79 180.82 199.329 180.82 Z "
             fill="rgb(0,56,69)"
             id="path81" />
        </g>
        <path
           d=" M 214.678 211.345 C 214.213 211.29 211.554 212.243 211.515 214.82 C 211.476 217.398 213.816 218.098 214.678 218.101 C 215.556 218.103 216.587 216.413 216.64 214.722 C 216.691 213.1 215.806 211.478 214.678 211.345 Z "
           fill="rgb(248,189,131)"
           id="path85"
           style="fill:#fecfa1;fill-opacity:1" />
        <path
           d=" M 215.76 211.988 C 215.55 211.971 216.08 213.192 216.056 214.722 C 216.038 215.909 215.47 217.354 215.709 217.429 C 216.083 217.548 216.812 216.199 216.812 214.722 C 216.812 213.244 216.187 212.021 215.76 211.988 Z "
           fill="rgb(250,204,159)"
           id="path87"
           style="fill:#ffc78f;fill-opacity:1" />
        <path
           d=" M 214.594 218.567 C 214.128 218.512 211.469 219.465 211.43 222.043 C 211.391 224.62 213.731 225.32 214.594 225.323 C 215.471 225.326 218.44 224.524 218.44 222.14 C 218.44 219.939 215.721 218.701 214.594 218.567 Z "
           fill="rgb(248,189,131)"
           id="path89"
           style="fill:#fecfa1;fill-opacity:1" />
        <path
           d=" M 215.675 219.21 C 215.465 219.193 215.995 220.415 215.971 221.944 C 215.953 223.131 215.385 224.576 215.624 224.652 C 215.998 224.77 217.156 223.412 217.156 221.934 C 217.156 220.456 216.102 219.243 215.675 219.21 Z "
           fill="rgb(250,204,159)"
           id="path91"
           style="fill:#ffc78f;fill-opacity:1" />
        <path
           d=" M 214.335 225.975 C 213.895 225.923 211.382 226.824 211.345 229.26 C 211.309 231.695 213.52 232.357 214.335 232.36 C 215.164 232.362 218.05 231.41 218.05 229.166 C 218.05 226.99 215.401 226.101 214.335 225.975 Z "
           fill="rgb(248,189,131)"
           id="path93"
           style="fill:#fecfa1;fill-opacity:1" />
        <path
           d=" M 215.357 226.582 C 215.159 226.567 215.66 227.721 215.637 229.166 C 215.62 230.289 215.083 231.654 215.308 231.725 C 215.662 231.837 216.511 230.554 216.511 229.157 C 216.511 227.761 215.761 226.614 215.357 226.582 Z "
           fill="rgb(250,204,159)"
           id="path95"
           style="fill:#ffc78f;fill-opacity:1" />
        <path
           d=" M 214.38 233.012 C 213.954 232.961 211.523 233.833 211.487 236.19 C 211.451 238.547 213.591 239.187 214.38 239.189 C 215.182 239.192 216.125 237.646 216.173 236.099 C 216.22 234.617 215.411 233.134 214.38 233.012 Z "
           fill="rgb(248,189,131)"
           id="path97"
           style="fill:#fecfa1;fill-opacity:1" />
        <path
           d=" M 215.369 233.599 C 215.177 233.584 215.661 234.701 215.64 236.099 C 215.623 237.185 215.104 238.506 215.322 238.575 C 215.664 238.684 216.33 237.451 216.33 236.099 C 216.33 234.748 215.759 233.63 215.369 233.599 Z "
           fill="rgb(250,204,159)"
           id="path99"
           style="fill:#ffc78f;fill-opacity:1" />
        <path
           d="m 194.701,218.904 c -1.17,-0.381 -4.555,-1.661 -5.613,-1.631 -1.51,0.044 -13.41,2.944 -14.327,3.896 -0.917,0.953 -8.346,10.611 -8.071,17.521 0.275,6.91 4.666,9.612 6.226,9.979 1.559,0.367 7.03079,2.10063 8.88179,-2.02637 2.061,-4.595 0.82821,-16.38763 1.30921,-16.72563 3.806,-2.674 4.895,-5.503 5.474,-5.319 0.579,0.183 4.308,0.756 6.655,-0.175 2.579,-1.023 4.568,-3.728 3.841,-4.39 -0.727,-0.661 -2.741,-0.597 -4.376,-1.129 z"
           id="path101"
           style="fill:#fecfa1;fill-opacity:1"
           inkscape:connector-curvature="0"
           sodipodi:nodetypes="cccsccccccc" />
        <path
           d=" M 198.783 219.836 C 198.917 219.98 198.168 221.105 196.637 221.087 C 195.9 221.079 193.574 220.219 193.449 219.938 C 193.324 219.656 193.639 218.54 193.711 218.565 C 193.782 218.59 198.357 219.377 198.783 219.836 Z "
           fill="rgb(250,204,159)"
           id="path103" />
      </g>
    </g>
    <g
       transform="matrix(0.35748522,-0.06303429,0.06303429,0.35748522,262.8221,172.77706)"
       data-name="Layer 2"
       id="Layer_2">
      <g
         data-name="Isolation Mode"
         id="Isolation_Mode">
        <rect
           style="opacity:1;fill:none;stroke:none;stroke-miterlimit:10"
           id="rect8"
           ry="10"
           rx="10"
           height="64.839996"
           width="64.839996"
           y="0.5"
           x="0.5"
           class="cls-1" />
        <path
           style="fill:#f39732;fill-opacity:1;fill-rule:evenodd"
           inkscape:connector-curvature="0"
           id="path10-3"
           d="m 3.65,54.78 v 1 H 3.76 A 2.08,2.08 0 0 1 5.89,54.7 c 1.11,0 2.23,0.17 2.37,1.39 h 0.12 c 0.13,-1 1.18,-1.39 2.16,-1.39 1.8,0 2.71,0.67 2.71,2.32 v 4.85 H 10.7 v -4.1 c 0,-0.74 0,-1.28 -1,-1.28 -1,0 -1.19,0.61 -1.19,1.36 v 4 H 5.93 v -4.3 c 0,-0.65 -0.07,-1.1 -1,-1.1 -1.05,0 -1.25,0.52 -1.25,1.36 v 4 H 1.17 v -7.03 z"
           class="cls-2" />
        <path
           style="fill:#f39732;fill-opacity:1;fill-rule:evenodd"
           inkscape:connector-curvature="0"
           id="path12-6"
           d="m 18.54,56.48 c 1.19,0 1.3,0.31 1.3,1.85 0,1.54 -0.11,1.84 -1.3,1.84 -1.19,0 -1.4,-0.3 -1.4,-1.84 0,-1.54 0.17,-1.85 1.4,-1.85 z m 0,-1.78 v 0 c -3.26,0 -3.9,0.73 -3.9,3.62 0,2.89 0.66,3.68 3.86,3.68 3.2,0 3.9,-0.7 3.9,-3.63 0,-2.93 -0.63,-3.67 -3.9,-3.67 z"
           class="cls-2" />
        <path
           style="fill:#f39732;fill-opacity:1;fill-rule:evenodd"
           inkscape:connector-curvature="0"
           id="path14-7"
           d="m 26.3,54.78 v 1.32 h 0.1 c 0.37,-1.12 1.13,-1.4 2.34,-1.4 1.72,0 2.5,0.74 2.5,2.26 v 4.9 H 28.7 v -4.35 c 0,-0.69 -0.24,-1 -1.07,-1 -1.14,0 -1.33,0.62 -1.33,1.49 v 3.91 h -2.56 v -7.13 z"
           class="cls-2" />
        <path
           style="fill:#f39732;fill-opacity:1;fill-rule:evenodd"
           inkscape:connector-curvature="0"
           id="path16-5"
           d="m 35.09,57.44 c 0,-0.93 0.31,-1.12 1.22,-1.12 0.91,0 1.28,0.07 1.28,1.12 z m 2.55,2.06 v 0 c 0,0.74 -0.51,0.82 -1.29,0.82 -1.06,0 -1.26,-0.36 -1.26,-1.6 h 5.07 v -0.39 c 0,-2.88 -0.89,-3.62 -3.81,-3.62 -3.13,0 -3.81,0.9 -3.81,3.62 0,2.72 0.74,3.67 3.81,3.67 a 6.42,6.42 0 0 0 2.75,-0.42 2.06,2.06 0 0 0 1.07,-2 z"
           class="cls-2" />
        <path
           style="fill:#f39732;fill-opacity:1;fill-rule:evenodd"
           inkscape:connector-curvature="0"
           id="path18-3"
           d="M 46.66,62.49 C 46.23,64.35 45.48,65 43.32,65 c -0.3,0 -0.58,0 -0.88,0 v -1.63 h 0.44 c 1.07,0 1.29,-0.72 1.34,-1.52 h -1.4 l -2.31,-7.09 h 2.67 l 1.54,5.75 v 0 L 46,54.78 h 2.6 z"
           class="cls-2" />
        <path
           style="fill:#f39732;fill-rule:evenodd"
           inkscape:connector-curvature="0"
           id="path20-5"
           d="M 40.62,48.34 H 21.15 c -4.06,0 -7.16,-1.2 -9.22,-3.58 A 11.73,11.73 0 0 1 9.47,36.26 V 19.4 h 4.41 v 17.3 a 7.37,7.37 0 0 0 1.42,5.19 c 1.19,1.35 3.16,2 5.86,2 H 36.21 V 19.4 h 4.41 z"
           class="cls-3" />
      </g>
    </g>
  </g>
</svg>
