<?xml version="1.0" encoding="UTF-8" standalone="no"?>
<svg
   xmlns:dc="http://purl.org/dc/elements/1.1/"
   xmlns:cc="http://creativecommons.org/ns#"
   xmlns:rdf="http://www.w3.org/1999/02/22-rdf-syntax-ns#"
   xmlns:svg="http://www.w3.org/2000/svg"
   xmlns="http://www.w3.org/2000/svg"
   xmlns:sodipodi="http://sodipodi.sourceforge.net/DTD/sodipodi-0.dtd"
   xmlns:inkscape="http://www.inkscape.org/namespaces/inkscape"
   version="1.1"
   x="0px"
   y="0px"
   viewBox="0 0 84 83.708458"
   xml:space="preserve"
   id="svg8"
   sodipodi:docname="noun_money add_642767.svg"
   width="84"
   height="83.708458"
   inkscape:export-filename="/home/uuganbaatar/Documents/mobile dev/umoney_flutter/assets/images/topup.png"
   inkscape:export-xdpi="91.43"
   inkscape:export-ydpi="91.43"
   inkscape:version="0.92.4 5da689c313, 2019-01-14"><metadata
     id="metadata14"><rdf:RDF><cc:Work
         rdf:about=""><dc:format>image/svg+xml</dc:format><dc:type
           rdf:resource="http://purl.org/dc/dcmitype/StillImage" /><dc:title></dc:title></cc:Work></rdf:RDF></metadata><defs
     id="defs12" /><sodipodi:namedview
     pagecolor="#ffffff"
     bordercolor="#666666"
     borderopacity="1"
     objecttolerance="10"
     gridtolerance="10"
     guidetolerance="10"
     inkscape:pageopacity="0"
     inkscape:pageshadow="2"
     inkscape:window-width="1920"
     inkscape:window-height="1016"
     id="namedview10"
     showgrid="false"
     fit-margin-top="0"
     fit-margin-left="0"
     fit-margin-right="0"
     fit-margin-bottom="0"
     inkscape:zoom="5.3400704"
     inkscape:cx="17.917328"
     inkscape:cy="39.809195"
     inkscape:window-x="0"
     inkscape:window-y="27"
     inkscape:window-maximized="1"
     inkscape:current-layer="svg8" /><path
     d="m 3.6,53.308457 c -0.2,0 -0.3,0.1 -0.5,0.1 -0.9,0 -1.7,-0.6 -1.9,-1.5 -0.8,-3.4 -1.2,-6.7 -1.2,-10.1 0,-1.1 0.9,-2 2,-2 1.1,0 2,0.9 2,2 0,3.1 0.4,6.1 1.1,9.1 0.3,1 -0.4,2.1 -1.5,2.4 z m -0.9,-19.2 c 0.2,0 0.3,0.1 0.5,0.1 0.9,0 1.7,-0.6 1.9,-1.5 0.7,-3 1.8,-5.8 3.2,-8.6 0.5,-1 0.1,-2.2 -0.8,-2.7 -1,-0.5 -2.2,-0.1 -2.7,0.8 -1.6,3 -2.8,6.2 -3.6,9.5 -0.3,1.1 0.4,2.2 1.5,2.4 z m 9.3,-16.9 c 0.6,0 1.1,-0.2 1.5,-0.7 2,-2.3 4.3,-4.3 6.9,-6.1 0.9,-0.5999996 1.1,-1.8999996 0.5,-2.7999996 -0.6,-0.9 -1.9,-1.1 -2.8,-0.5 -2.8,1.9 -5.3,4.1999996 -7.6,6.6999996 -0.7,0.8 -0.7,2.1 0.2,2.8 0.4,0.5 0.9,0.6 1.3,0.6 z M 46.5,4.0084574 c 3,0.4 6,1.1 8.9,2.2 0.2,0.1 0.5,0.1 0.7,0.1 0.8,0 1.6,-0.5 1.9,-1.3 0.4,-1 -0.1,-2.2 -1.2,-2.6 -3.2,-1.2 -6.5,-1.99999997 -9.8,-2.39999997 -1.1,-0.1 -2.1,0.7 -2.2,1.69999997 -0.1,1.2 0.6,2.2 1.7,2.3 z m -18.7,2.4 c 0.2,0 0.5,0 0.7,-0.1 2.9,-1.1 5.8,-1.8 8.9,-2.2 1.1,-0.1 1.9,-1.1 1.7,-2.2 C 39,0.70845743 38,-0.09154257 36.9,0.10845743 c -3.4,0.4 -6.7,1.19999997 -9.8,2.39999997 -1,0.4 -1.6,1.5 -1.2,2.6 0.3,0.8 1.1,1.3 1.9,1.3 z M 78.9,32.608457 c 0.2,0.9 1,1.5 1.9,1.5 0.2,0 0.3,0 0.5,-0.1 1.1,-0.3 1.7,-1.4 1.5,-2.4 -0.8,-3.3 -2,-6.5 -3.6,-9.5 -0.5,-1 -1.7,-1.4 -2.7,-0.8 -1,0.6 -1.4,1.7 -0.8,2.7 1.4,2.7 2.5,5.6 3.2,8.6 z m -15.4,-22.1 c 2.5,1.7 4.8,3.8 6.9,6.1 0.4,0.4 0.9,0.7 1.5,0.7 0.5,0 0.9,-0.2 1.3,-0.5 0.8,-0.7 0.9,-2 0.2,-2.8 -2.2,-2.5 -4.8,-4.7999996 -7.6,-6.6999996 -0.9,-0.6 -2.2,-0.4 -2.8,0.5 -0.6,0.8 -0.4,2 0.5,2.6999996 z m -35,66.8 c -2.9,-1.1 -5.6,-2.5 -8.1,-4.3 -0.9,-0.6 -2.2,-0.4 -2.8,0.5 -0.6,0.9 -0.4,2.2 0.5,2.8 2.8,1.9 5.8,3.5 9,4.7 0.2,0.1 0.5,0.1 0.7,0.1 0.8,0 1.6,-0.5 1.9,-1.3 0.3,-1 -0.2,-2.1 -1.2,-2.5 z m 53.5,-37.6 c 0,0 0,0 0,0 -1.1,0 -2,0.9 -2,2 0,0 0,0.1 0,0.1 0,3.1 -0.4,6.1 -1.1,9.1 -0.3,1.1 0.4,2.2 1.5,2.4 0.2,0 0.3,0.1 0.5,0.1 0.9,0 1.7,-0.6 1.9,-1.5 0.8,-3.3 1.2,-6.6 1.2,-10.1 0,0 0,-0.1 0,-0.1 0,-1.1 -0.9,-2 -2,-2 z m -35.5,39.8 c -1.5,0.2 -3,0.3 -4.6,0.3 -1.5,0 -3,-0.1 -4.5,-0.3 -1.1,-0.1 -2.1,0.6 -2.2,1.7 -0.1,1.1 0.6,2.1 1.7,2.2 1.7,0.2 3.3,0.3 5.1,0.3 1.7,0 3.4,-0.1 5,-0.3 1.1,-0.1 1.9,-1.1 1.7,-2.2 -0.1,-1.1 -1.1,-1.8 -2.2,-1.7 z m -38.2,-20.1 c -0.5,-1 -1.7,-1.4 -2.7,-0.8 -1,0.5 -1.4,1.7 -0.8,2.7 1.6,3 3.5,5.8 5.8,8.3 0.4,0.4 0.9,0.7 1.5,0.7 0.5,0 0.9,-0.2 1.3,-0.5 0.8,-0.7 0.9,-2 0.2,-2.8 -2.1,-2.4 -3.8,-4.9 -5.3,-7.6 z m 33.7,-27.1 c 2.9,0 5,1.6 5,3.1 0,1.8 1.5,3.3 3.3,3.3 1.8,0 3.3,-1.5 3.3,-3.3 0,-4.4 -3.5,-8.1 -8.3,-9.3 v -1 c 0,-1.8 -1.5,-3.3 -3.3,-3.3 -1.8,0 -3.3,1.5 -3.3,3.3 v 1 c -4.8,1.2 -8.3,4.9 -8.3,9.3 0,5.4 5.2,9.7 11.7,9.7 2.9,0 5,1.6 5,3.1 0,1.5 -2.1,3.1 -5,3.1 -2.9,0 -5,-1.6 -5,-3.1 0,-1.8 -1.5,-3.3 -3.3,-3.3 -1.8,0 -3.3,1.5 -3.3,3.3 0,4.4 3.5,8.1 8.3,9.3 v 0.9 c 0,1.8 1.5,3.3 3.3,3.3 1.8,0 3.3,-1.5 3.3,-3.3 v -0.9 c 4.8,-1.2 8.3,-4.9 8.3,-9.3 0,-5.4 -5.2,-9.7 -11.7,-9.7 -2.9,0 -5,-1.6 -5,-3.1 0,-1.5 2.1,-3.1 5,-3.1 z m 14.8,44.4 c -0.5,0.2 -0.9,0.4 -1.4,0.6 -1,0.4 -1.6,1.5 -1.2,2.6 0.3,0.8 1.1,1.3 1.9,1.3 0.2,0 0.5,0 0.7,-0.1 0.9,-0.3 1.8,-0.7 2.7,-1.1 -1,-1 -1.9,-2.1 -2.7,-3.3 z m -2.1,-5.6 c -4,1.7 -8.3,2.6 -12.7,2.6 0,0 0,0 -0.1,0 -8.5,0 -16.6,-3.4 -22.6,-9.4 -6,-6.1 -9.3,-14.1 -9.3,-22.6 0,-8.5 3.4,-16.6 9.4,-22.6 6,-6 14.1,-9.2999996 22.6,-9.2999996 0,0 0,0 0.1,0 8.5,0 16.6,3.3999996 22.6,9.3999996 6,6.1 9.3,14.1 9.3,22.6 0,4.2 -0.8,8.3 -2.4,12.1 1.4,0.2 2.7,0.6 3.9,1.1 1.6,-4.1 2.5,-8.6 2.5,-13.2 0,-9.6 -3.7,-18.7 -10.5,-25.5 C 60.7,9.5084574 51.7,5.8084574 42.1,5.8084574 c 0,0 0,0 -0.1,0 -9.6,0 -18.6,3.7 -25.4,10.4999996 -6.8,6.7 -10.6,15.8 -10.6,25.4 0,9.6 3.7,18.7 10.5,25.5 6.8,6.8 15.8,10.6 25.4,10.6 0,0 0,0 0.1,0 4.8,0 9.5,-1 13.9,-2.8 -0.6,-1.2 -1,-2.5 -1.2,-3.9 z m 27.3,-2.3 c 0,6.9 -5.6,12.5 -12.5,12.5 -6.9,0 -12.5,-5.6 -12.5,-12.5 0,-6.9 5.6,-12.5 12.5,-12.5 6.9,0 12.5,5.6 12.5,12.5 z m -3,0 c 0,-1.1 -0.9,-2 -2,-2 h -5.5 v -5.5 c 0,-1.1 -0.9,-2 -2,-2 -1.1,0 -2,0.9 -2,2 v 5.5 H 62 c -1.1,0 -2,0.9 -2,2 0,1.1 0.9,2 2,2 h 5.5 v 5.5 c 0,1.1 0.9,2 2,2 1.1,0 2,-0.9 2,-2 v -5.5 H 77 c 1.1,0 2,-0.9 2,-2 z"
     id="path2"
     inkscape:connector-curvature="0"
     style="fill:#fd9644;fill-opacity:1"
     inkscape:export-filename="/home/uuganbaatar/Documents/mobile dev/umoney_flutter/assets/images/topup.png"
     inkscape:export-xdpi="45.709999"
     inkscape:export-ydpi="45.709999" /></svg>