<?xml version="1.0" encoding="UTF-8" standalone="no"?>
<svg
   xmlns:dc="http://purl.org/dc/elements/1.1/"
   xmlns:cc="http://creativecommons.org/ns#"
   xmlns:rdf="http://www.w3.org/1999/02/22-rdf-syntax-ns#"
   xmlns:svg="http://www.w3.org/2000/svg"
   xmlns="http://www.w3.org/2000/svg"
   xmlns:sodipodi="http://sodipodi.sourceforge.net/DTD/sodipodi-0.dtd"
   xmlns:inkscape="http://www.inkscape.org/namespaces/inkscape"
   version="1.1"
   x="0px"
   y="0px"
   viewBox="0 0 48 40"
   enable-background="new 0 0 50 50"
   xml:space="preserve"
   id="svg14"
   sodipodi:docname="noun_Credit Card_2606406.svg"
   width="48"
   height="40"
   inkscape:version="0.92.4 5da689c313, 2019-01-14"><metadata
     id="metadata20"><rdf:RDF><cc:Work
         rdf:about=""><dc:format>image/svg+xml</dc:format><dc:type
           rdf:resource="http://purl.org/dc/dcmitype/StillImage" /><dc:title></dc:title></cc:Work></rdf:RDF></metadata><defs
     id="defs18" /><sodipodi:namedview
     pagecolor="#ffffff"
     bordercolor="#666666"
     borderopacity="1"
     objecttolerance="10"
     gridtolerance="10"
     guidetolerance="10"
     inkscape:pageopacity="0"
     inkscape:pageshadow="2"
     inkscape:window-width="1920"
     inkscape:window-height="1016"
     id="namedview16"
     showgrid="false"
     fit-margin-top="0"
     fit-margin-left="0"
     fit-margin-right="0"
     fit-margin-bottom="0"
     inkscape:zoom="7.552"
     inkscape:cx="27.439385"
     inkscape:cy="24.684213"
     inkscape:window-x="0"
     inkscape:window-y="27"
     inkscape:window-maximized="1"
     inkscape:current-layer="g8" /><g
     id="g8"
     transform="translate(-1,-5)"><path
       d="m 13,26.63531 c 0.10124,-0.04554 6.52199,-2.93408 6.12,-2.75323 3.1066,-1.68283 6.89573,-0.51508 8.56,2.3139 0.97068,1.63067 0.95528,3.58764 0.75,4.18848 H 47 c 1.10999,0 2,-0.87872 2,-1.95264 V 14.40204 C 49,14.26532 48.89001,14.15796 48.75,14.15796 11.3335,14.27032 13,13.92219 13,14.40204 Z"
       id="path2"
       inkscape:connector-curvature="0"
       style="fill:#3a62ff;fill-opacity:1"
       inkscape:export-filename="/home/uuganbaatar/Documents/mobile dev/umoney_flutter/assets/images/charge.png"
       inkscape:export-xdpi="79.199997"
       inkscape:export-ydpi="79.199997" /><path
       d="m 13.25,10.25262 c 20.82141,0 14.75495,0 35.5,0 0.14001,0 0.25,-0.10742 0.25,-0.24408 V 6.95263 C 49,5.87866 48.09998,5 47,5 H 15 c -1.10004,0 -2,0.87866 -2,1.95264 0,0.31553 0,3.19702 0,3.05591 0,0.13665 0.10999,0.24407 0.25,0.24407 z"
       id="path4"
       inkscape:connector-curvature="0"
       style="fill:#3a62ff;fill-opacity:1"
       inkscape:export-filename="/home/uuganbaatar/Documents/mobile dev/umoney_flutter/assets/images/charge.png"
       inkscape:export-xdpi="79.199997"
       inkscape:export-ydpi="79.199997" /><path
       d="m 9.26001,9.2763 c -1.37,0 -2.65002,0.68341 -3.38,1.82574 l -4.8031,7.44727 C 1.02667,18.6272 1,18.71741 1,18.80945 V 44.51184 C 1,44.78143 1.22388,45 1.5,45 h 4.51001 c 2.28015,0 4.44403,-0.95782 5.96271,-2.61835 3.4411,-3.76263 7.80402,-6.69385 12.39728,-9.42944 2.04356,-1.1552 2.76483,-3.71239 1.58002,-5.77014 V 27.1723 C 24.94559,25.41769 22.38884,24.35848 20.03999,25.61999 19.9371,25.66622 10.40967,29.94668 11,29.68146 V 9.52038 C 11,9.09931 10.35779,9.34527 9.26001,9.2763 Z"
       id="path6"
       inkscape:connector-curvature="0"
       style="fill:#3a62ff;fill-opacity:1"
       inkscape:export-filename="/home/uuganbaatar/Documents/mobile dev/umoney_flutter/assets/images/charge.png"
       inkscape:export-xdpi="79.199997"
       inkscape:export-ydpi="79.199997" /></g></svg>