<?xml version="1.0" encoding="UTF-8" standalone="no"?>
<svg
   xmlns:dc="http://purl.org/dc/elements/1.1/"
   xmlns:cc="http://creativecommons.org/ns#"
   xmlns:rdf="http://www.w3.org/1999/02/22-rdf-syntax-ns#"
   xmlns:svg="http://www.w3.org/2000/svg"
   xmlns="http://www.w3.org/2000/svg"
   xmlns:sodipodi="http://sodipodi.sourceforge.net/DTD/sodipodi-0.dtd"
   xmlns:inkscape="http://www.inkscape.org/namespaces/inkscape"
   viewBox="0 0 17.890924 15.929001"
   version="1.1"
   x="0px"
   y="0px"
   id="svg16"
   sodipodi:docname="noun_Leave_1796639.svg"
   width="17.890924"
   height="15.929001"
   inkscape:export-filename="/home/uuganbaatar/Documents/mobile dev/umoney_flutter/assets/images/getoff.png"
   inkscape:export-xdpi="214.63396"
   inkscape:export-ydpi="214.63396"
   inkscape:version="0.92.4 5da689c313, 2019-01-14">
  <metadata
     id="metadata22">
    <rdf:RDF>
      <cc:Work
         rdf:about="">
        <dc:format>image/svg+xml</dc:format>
        <dc:type
           rdf:resource="http://purl.org/dc/dcmitype/StillImage" />
        <dc:title>Icons1/leave</dc:title>
      </cc:Work>
    </rdf:RDF>
  </metadata>
  <defs
     id="defs20" />
  <sodipodi:namedview
     pagecolor="#ffffff"
     bordercolor="#666666"
     borderopacity="1"
     objecttolerance="10"
     gridtolerance="10"
     guidetolerance="10"
     inkscape:pageopacity="0"
     inkscape:pageshadow="2"
     inkscape:window-width="1920"
     inkscape:window-height="1016"
     id="namedview18"
     showgrid="false"
     fit-margin-top="0"
     fit-margin-left="0"
     fit-margin-right="0"
     fit-margin-bottom="0"
     inkscape:zoom="21.360282"
     inkscape:cx="11.15453"
     inkscape:cy="6.8738563"
     inkscape:window-x="0"
     inkscape:window-y="27"
     inkscape:window-maximized="1"
     inkscape:current-layer="svg16" />
  <title
     id="title2">Icons1/leave</title>
  <desc
     id="desc4">Created with Sketch.</desc>
  <g
     id="g10"
     style="fill:#939393;fill-rule:evenodd;stroke:none;stroke-width:1;fill-opacity:1"
     transform="translate(-3.9997748,-4.0000995)">
    <path
       d="m 14.0739,15.8331 c -0.419,-0.039 -0.779,0.262 -0.819,0.674 -0.08,0.822 -0.741,1.59 -1.224,1.677 -1.98,0.327 -3.125,0.326 -5.096,10e-4 -0.493,-0.088 -1.153,-0.856 -1.232,-1.672 -0.271,-3.018 -0.271,-6.078 -10e-4,-9.091 0.08,-0.821 0.74,-1.589 1.224,-1.676 1.979,-0.327 3.124,-0.327 5.095,-0.002 0.493,0.089 1.154,0.857 1.234,1.678 0.039,0.412 0.39,0.711 0.819,0.674 0.412,-0.04 0.714,-0.407 0.673,-0.819 -0.141,-1.442 -1.245,-2.792 -2.472,-3.011 -2.143,-0.355 -3.452,-0.355 -5.603,0.002 -1.217,0.217 -2.322,1.567 -2.463,3.015 -0.279,3.106 -0.279,6.257 0.001,9.369 0.14,1.442 1.245,2.792 2.471,3.011 1.071,0.177 1.933,0.266 2.795,0.266 0.866,0 1.731,-0.089 2.809,-0.267 1.217,-0.218 2.321,-1.568 2.462,-3.01 0.041,-0.412 -0.261,-0.778 -0.673,-0.819"
       id="path6"
       inkscape:connector-curvature="0"
       style="fill:#939393;fill-opacity:1" />
    <path
       d="m 21.8707,12.128 c 0.005,-0.033 0.019,-0.064 0.019,-0.097 0,-0.001 10e-4,-0.002 10e-4,-0.004 -10e-4,-0.104 -0.024,-0.203 -0.063,-0.293 -0.521,-1.209 -1.232,-2.099 -2.45,-3.07 -0.324,-0.257 -0.795,-0.206 -1.055,0.119 -0.258,0.324 -0.204,0.796 0.119,1.054 0.625,0.498 1.071,0.956 1.425,1.457 l -9.483,0.077 c -0.414,0.003 -0.747,0.341 -0.744,0.756 0.002,0.412 0.338,0.744 0.75,0.744 h 0.005 l 9.285,-0.076 c -0.414,0.429 -0.898,0.816 -1.321,1.072 -0.354,0.214 -0.468,0.675 -0.255,1.03 0.142,0.233 0.389,0.362 0.644,0.362 0.132,0 0.266,-0.035 0.387,-0.108 0.914,-0.552 2.169,-1.621 2.692,-2.816 0.001,-0.003 0,-0.005 0.002,-0.008 0.026,-0.061 0.033,-0.13 0.042,-0.199"
       id="path8"
       inkscape:connector-curvature="0"
       style="fill:#939393;fill-opacity:1" />
  </g>
</svg>
