<?xml version="1.0" encoding="UTF-8" standalone="no"?>
<svg
   xmlns:dc="http://purl.org/dc/elements/1.1/"
   xmlns:cc="http://creativecommons.org/ns#"
   xmlns:rdf="http://www.w3.org/1999/02/22-rdf-syntax-ns#"
   xmlns:svg="http://www.w3.org/2000/svg"
   xmlns="http://www.w3.org/2000/svg"
   xmlns:sodipodi="http://sodipodi.sourceforge.net/DTD/sodipodi-0.dtd"
   xmlns:inkscape="http://www.inkscape.org/namespaces/inkscape"
   version="1.1"
   x="0px"
   y="0px"
   viewBox="0 0 96.599998 96.599998"
   xml:space="preserve"
   id="svg12"
   sodipodi:docname="noun_Question_869753.svg"
   width="96.599998"
   height="96.599998"
   inkscape:version="0.92.4 5da689c313, 2019-01-14"><metadata
     id="metadata18"><rdf:RDF><cc:Work
         rdf:about=""><dc:format>image/svg+xml</dc:format><dc:type
           rdf:resource="http://purl.org/dc/dcmitype/StillImage" /><dc:title></dc:title></cc:Work></rdf:RDF></metadata><defs
     id="defs16" /><sodipodi:namedview
     pagecolor="#ffffff"
     bordercolor="#666666"
     borderopacity="1"
     objecttolerance="10"
     gridtolerance="10"
     guidetolerance="10"
     inkscape:pageopacity="0"
     inkscape:pageshadow="2"
     inkscape:window-width="1920"
     inkscape:window-height="1016"
     id="namedview14"
     showgrid="false"
     fit-margin-top="0"
     fit-margin-left="0"
     fit-margin-right="0"
     fit-margin-bottom="0"
     inkscape:zoom="3.776"
     inkscape:cx="-34.197238"
     inkscape:cy="23.340533"
     inkscape:window-x="0"
     inkscape:window-y="27"
     inkscape:window-maximized="1"
     inkscape:current-layer="svg12" /><path
     d="M 48.3,96.6 C 21.6,96.6 0,74.9 0,48.3 0,21.7 21.6,0 48.3,0 75,0 96.6,21.7 96.6,48.3 96.6,74.9 74.9,96.6 48.3,96.6 Z m 0,-90.7 C 24.9,5.9 6,24.9 6,48.3 6,71.6 25,90.6 48.3,90.6 71.6,90.6 90.6,71.6 90.6,48.3 90.6,24.9 71.6,5.9 48.3,5.9 Z"
     id="path2"
     inkscape:connector-curvature="0"
     style="fill:#939393;fill-opacity:1" /><path
     d="m 48.8,22.6 c -9.1,0 -16.6,7.4 -16.6,16.6 0,1.5 1.2,2.7 2.7,2.7 1.5,0 2.7,-1.2 2.7,-2.7 C 37.6,33 42.6,28 48.8,28 55,28 60,33 60,39.2 c 0,6.2 -5,11.2 -11.2,11.2 -1.5,0 -2.7,1.2 -2.7,2.7 v 8.1 c 0,1.5 1.2,2.7 2.7,2.7 1.5,0 2.7,-1.2 2.7,-2.7 V 55.5 C 59.4,54.2 65.4,47.4 65.4,39.1 65.4,30 58,22.6 48.8,22.6 Z"
     id="path4"
     inkscape:connector-curvature="0"
     style="fill:#939393;fill-opacity:1" /><circle
     cx="48.799999"
     cy="72.099998"
     r="3.8"
     id="circle6"
     style="fill:#939393;fill-opacity:1" /></svg>