<?xml version="1.0" encoding="UTF-8" standalone="no"?>
<svg
   xmlns:dc="http://purl.org/dc/elements/1.1/"
   xmlns:cc="http://creativecommons.org/ns#"
   xmlns:rdf="http://www.w3.org/1999/02/22-rdf-syntax-ns#"
   xmlns:svg="http://www.w3.org/2000/svg"
   xmlns="http://www.w3.org/2000/svg"
   xmlns:sodipodi="http://sodipodi.sourceforge.net/DTD/sodipodi-0.dtd"
   xmlns:inkscape="http://www.inkscape.org/namespaces/inkscape"
   viewBox="0 0 47.430004 45.600001"
   version="1.1"
   id="svg24"
   sodipodi:docname="umoney0.svg"
   inkscape:version="0.92.4 5da689c313, 2019-01-14"
   width="47.43"
   height="45.599998">
  <metadata
     id="metadata28">
    <rdf:RDF>
      <cc:Work
         rdf:about="">
        <dc:format>image/svg+xml</dc:format>
        <dc:type
           rdf:resource="http://purl.org/dc/dcmitype/StillImage" />
        <dc:title>umoney0</dc:title>
      </cc:Work>
    </rdf:RDF>
  </metadata>
  <sodipodi:namedview
     pagecolor="#ffffff"
     bordercolor="#666666"
     borderopacity="1"
     objecttolerance="10"
     gridtolerance="10"
     guidetolerance="10"
     inkscape:pageopacity="0"
     inkscape:pageshadow="2"
     inkscape:window-width="1920"
     inkscape:window-height="1016"
     id="namedview26"
     showgrid="false"
     inkscape:zoom="10.138348"
     inkscape:cx="13.875252"
     inkscape:cy="26.328685"
     inkscape:window-x="0"
     inkscape:window-y="27"
     inkscape:window-maximized="1"
     inkscape:current-layer="Isolation_Mode"
     fit-margin-top="0"
     fit-margin-left="0"
     fit-margin-right="0"
     fit-margin-bottom="0" />
  <defs
     id="defs4">
    <style
       id="style2">.cls-1{fill:none;stroke:#bdbbba;stroke-miterlimit:10;}.cls-2{fill:#707173;}.cls-2,.cls-3{fill-rule:evenodd;}.cls-3{fill:#f39732;}</style>
  </defs>
  <title
     id="title6">umoney0</title>
  <g
     id="Layer_2"
     data-name="Layer 2"
     transform="translate(-1.17,-19.4)">
    <g
       id="Isolation_Mode"
       data-name="Isolation Mode">
      <rect
         class="cls-1"
         x="0.5"
         y="0.5"
         width="64.839996"
         height="64.839996"
         rx="10"
         ry="10"
         id="rect8"
         style="opacity:1;fill:none;stroke:none;stroke-miterlimit:10" />
      <path
         class="cls-2"
         d="m 3.65,54.78 v 1 H 3.76 A 2.08,2.08 0 0 1 5.89,54.7 c 1.11,0 2.23,0.17 2.37,1.39 h 0.12 c 0.13,-1 1.18,-1.39 2.16,-1.39 1.8,0 2.71,0.67 2.71,2.32 v 4.85 H 10.7 v -4.1 c 0,-0.74 0,-1.28 -1,-1.28 -1,0 -1.19,0.61 -1.19,1.36 v 4 H 5.93 v -4.3 c 0,-0.65 -0.07,-1.1 -1,-1.1 -1.05,0 -1.25,0.52 -1.25,1.36 v 4 H 1.17 v -7.03 z"
         id="path10"
         inkscape:connector-curvature="0"
         style="fill:#f39732;fill-rule:evenodd;fill-opacity:1" />
      <path
         class="cls-2"
         d="m 18.54,56.48 c 1.19,0 1.3,0.31 1.3,1.85 0,1.54 -0.11,1.84 -1.3,1.84 -1.19,0 -1.4,-0.3 -1.4,-1.84 0,-1.54 0.17,-1.85 1.4,-1.85 z m 0,-1.78 v 0 c -3.26,0 -3.9,0.73 -3.9,3.62 0,2.89 0.66,3.68 3.86,3.68 3.2,0 3.9,-0.7 3.9,-3.63 0,-2.93 -0.63,-3.67 -3.9,-3.67 z"
         id="path12"
         inkscape:connector-curvature="0"
         style="fill:#f39732;fill-rule:evenodd;fill-opacity:1" />
      <path
         class="cls-2"
         d="m 26.3,54.78 v 1.32 h 0.1 c 0.37,-1.12 1.13,-1.4 2.34,-1.4 1.72,0 2.5,0.74 2.5,2.26 v 4.9 H 28.7 v -4.35 c 0,-0.69 -0.24,-1 -1.07,-1 -1.14,0 -1.33,0.62 -1.33,1.49 v 3.91 h -2.56 v -7.13 z"
         id="path14"
         inkscape:connector-curvature="0"
         style="fill:#f39732;fill-rule:evenodd;fill-opacity:1" />
      <path
         class="cls-2"
         d="m 35.09,57.44 c 0,-0.93 0.31,-1.12 1.22,-1.12 0.91,0 1.28,0.07 1.28,1.12 z m 2.55,2.06 v 0 c 0,0.74 -0.51,0.82 -1.29,0.82 -1.06,0 -1.26,-0.36 -1.26,-1.6 h 5.07 v -0.39 c 0,-2.88 -0.89,-3.62 -3.81,-3.62 -3.13,0 -3.81,0.9 -3.81,3.62 0,2.72 0.74,3.67 3.81,3.67 a 6.42,6.42 0 0 0 2.75,-0.42 2.06,2.06 0 0 0 1.07,-2 z"
         id="path16"
         inkscape:connector-curvature="0"
         style="fill:#f39732;fill-rule:evenodd;fill-opacity:1" />
      <path
         class="cls-2"
         d="M 46.66,62.49 C 46.23,64.35 45.48,65 43.32,65 c -0.3,0 -0.58,0 -0.88,0 v -1.63 h 0.44 c 1.07,0 1.29,-0.72 1.34,-1.52 h -1.4 l -2.31,-7.09 h 2.67 l 1.54,5.75 v 0 L 46,54.78 h 2.6 z"
         id="path18"
         inkscape:connector-curvature="0"
         style="fill:#f39732;fill-rule:evenodd;fill-opacity:1" />
      <path
         class="cls-3"
         d="M 40.62,48.34 H 21.15 c -4.06,0 -7.16,-1.2 -9.22,-3.58 A 11.73,11.73 0 0 1 9.47,36.26 V 19.4 h 4.41 v 17.3 a 7.37,7.37 0 0 0 1.42,5.19 c 1.19,1.35 3.16,2 5.86,2 H 36.21 V 19.4 h 4.41 z"
         id="path20"
         inkscape:connector-curvature="0"
         style="fill:#f39732;fill-rule:evenodd" />
    </g>
  </g>
</svg>
